<svg xmlns="http://www.w3.org/2000/svg" width="115" height="75" viewBox="0 0 115 75"><defs><style>.cls-1{fill:none;}.cls-2,.cls-3{fill:#00237e;}.cls-3{opacity:0.3;}.cls-4{fill:#03277c;}</style></defs><title>google-reviews</title><g id="Layer_2" data-name="Layer 2"><g id="icons"><g id="google-reviews"><rect id="bounding-box" class="cls-1" width="115" height="75"/><g id="stars"><polygon class="cls-2" points="11.74 66.47 17.18 69.75 15.73 63.56 20.54 59.4 14.21 58.87 11.74 53.03 9.27 58.87 2.94 59.4 7.74 63.56 6.3 69.75 11.74 66.47"/><polygon class="cls-2" points="34.62 66.47 40.06 69.75 38.61 63.56 43.42 59.4 37.09 58.87 34.62 53.03 32.15 58.87 25.82 59.4 30.62 63.56 29.18 69.75 34.62 66.47"/><polygon class="cls-2" points="57.5 66.47 62.94 69.75 61.49 63.56 66.3 59.4 59.97 58.87 57.5 53.03 55.02 58.87 48.7 59.4 53.5 63.56 52.06 69.75 57.5 66.47"/><polygon class="cls-2" points="80.38 66.47 85.82 69.75 84.37 63.56 89.18 59.4 82.85 58.87 80.38 53.03 77.91 58.87 71.58 59.4 76.38 63.56 74.94 69.75 80.38 66.47"/><polygon class="cls-2" points="106.7 58.94 106.7 68.55 103.26 66.47 97.82 69.75 99.26 63.56 94.46 59.4 100.78 58.86 103.26 53.03 105.73 58.86 106.7 58.94"/><polygon class="cls-3" points="107.25 63.56 108.69 69.75 106.7 68.55 106.7 58.94 112.06 59.4 107.25 63.56"/></g><path id="customer-reviews" class="cls-4" d="M6.05,39.76a5.32,5.32,0,0,1-3.74-9,5,5,0,0,1,3.74-1.52,4.64,4.64,0,0,1,3.7,1.65l-.92.9a3.47,3.47,0,0,0-2.78-1.31,3.8,3.8,0,0,0-2.8,1.13,4.34,4.34,0,0,0,0,5.8,3.8,3.8,0,0,0,2.8,1.13A4,4,0,0,0,9.11,37l.94.91a4.78,4.78,0,0,1-1.76,1.33A5.4,5.4,0,0,1,6.05,39.76Zm11.14-.23H16v-1h-.06a2.32,2.32,0,0,1-.9.85,2.72,2.72,0,0,1-1.28.34,2.58,2.58,0,0,1-2-.73A2.91,2.91,0,0,1,11.08,37V32.63h1.29v4.25a1.53,1.53,0,0,0,1.71,1.69A1.62,1.62,0,0,0,15.37,38a2.26,2.26,0,0,0,.52-1.5V32.63h1.3ZM24,37.62a1.9,1.9,0,0,1-.79,1.52,3.15,3.15,0,0,1-2,.62,3.11,3.11,0,0,1-1.83-.55,3,3,0,0,1-1.13-1.43l1.16-.49a2.14,2.14,0,0,0,.74,1,1.78,1.78,0,0,0,1.06.34,1.89,1.89,0,0,0,1-.27.76.76,0,0,0,.41-.63c0-.44-.34-.76-1-1l-1.18-.3c-1.35-.34-2-1-2-1.94A1.79,1.79,0,0,1,19.21,33a3.54,3.54,0,0,1,3.62-.14,2.33,2.33,0,0,1,1,1.17l-1.15.48a1.46,1.46,0,0,0-.64-.68,2.05,2.05,0,0,0-1-.25,1.72,1.72,0,0,0-.91.25.73.73,0,0,0-.4.62c0,.4.37.68,1.11.85l1,.27C23.29,35.88,24,36.57,24,37.62Zm3.78,2a1.87,1.87,0,0,1-2-2V33.81H24.58V32.63h1.21V30.52h1.3v2.11h1.69v1.18H27.09v3.44a1.28,1.28,0,0,0,.26.93.88.88,0,0,0,.61.25,1.53,1.53,0,0,0,.3,0l.28-.1L29,39.46a3.41,3.41,0,0,1-1.19.18ZM39,39.53H37.69v-6.9h1.24v1h0a2.35,2.35,0,0,1,.91-.85,2.57,2.57,0,0,1,1.22-.33,2.48,2.48,0,0,1,1.34.35,2.09,2.09,0,0,1,.84,1,2.71,2.71,0,0,1,2.38-1.32,2.33,2.33,0,0,1,1.85.73,3,3,0,0,1,.64,2.08v4.31H46.87V35.42a2.23,2.23,0,0,0-.35-1.4,1.45,1.45,0,0,0-1.19-.43,1.56,1.56,0,0,0-1.25.63,2.3,2.3,0,0,0-.51,1.49v3.82H42.28V35.42a2.23,2.23,0,0,0-.35-1.4,1.45,1.45,0,0,0-1.19-.43,1.56,1.56,0,0,0-1.25.63A2.3,2.3,0,0,0,39,35.71Zm19.55,0h-1.3v-6.9h1.24v1.13h.06a1.85,1.85,0,0,1,.81-.94,2.24,2.24,0,0,1,1.2-.39,2.46,2.46,0,0,1,1,.17l-.4,1.26a2,2,0,0,0-.76-.1,1.66,1.66,0,0,0-1.27.59,2,2,0,0,0-.54,1.38Zm25.67,0H82.9l-2.79-6.9h1.41l2,5.35h0l2-5.35H87Zm5.33-9.28a.88.88,0,0,1-.27.65.91.91,0,0,1-1.29,0,.88.88,0,0,1-.27-.65A.89.89,0,0,1,88,29.6a.87.87,0,0,1,.65-.26.88.88,0,0,1,.64.26A.85.85,0,0,1,89.53,30.25Zm-.27,2.38v6.9H88v-6.9Zm18.8,0-2.22,6.9h-1.33l-1.71-5.29-1.71,5.29H99.78l-2.22-6.9h1.35l1.53,5.21h0l1.7-5.21h1.34l1.7,5.21h0l1.52-5.21Zm6.13,5a1.9,1.9,0,0,1-.79,1.52,3.15,3.15,0,0,1-2,.62,3.11,3.11,0,0,1-1.83-.55,2.89,2.89,0,0,1-1.12-1.43l1.15-.49a2.21,2.21,0,0,0,.74,1,1.78,1.78,0,0,0,1.06.34,1.87,1.87,0,0,0,1-.27.76.76,0,0,0,.41-.63c0-.44-.34-.76-1-1l-1.18-.3c-1.35-.34-2-1-2-1.94a1.79,1.79,0,0,1,.77-1.51,3.54,3.54,0,0,1,3.62-.14,2.33,2.33,0,0,1,1,1.17l-1.15.48a1.46,1.46,0,0,0-.64-.68,2.05,2.05,0,0,0-1-.25,1.75,1.75,0,0,0-.91.25.73.73,0,0,0-.4.62c0,.4.37.68,1.11.85l1,.27C113.5,35.88,114.19,36.57,114.19,37.62ZM35.63,33.45a3.33,3.33,0,0,0-2.53-1,3.4,3.4,0,0,0-2.55,1,4,4,0,0,0,0,5.26,3.4,3.4,0,0,0,2.55,1,3.33,3.33,0,0,0,2.53-1,3.9,3.9,0,0,0,0-5.26Zm-.93,4.43a2.1,2.1,0,0,1-1.6.69,2.13,2.13,0,0,1-1.61-.69,2.84,2.84,0,0,1,0-3.59,2.14,2.14,0,0,1,1.61-.7,2.1,2.1,0,0,1,1.6.7,2.8,2.8,0,0,1,0,3.59Zm21.35-1.7a4,4,0,0,0-.91-2.78,3.45,3.45,0,0,0-4.89.05,3.76,3.76,0,0,0-1,2.63,3.66,3.66,0,0,0,1,2.63,3.26,3.26,0,0,0,2.5,1,3.55,3.55,0,0,0,1.87-.49,3.44,3.44,0,0,0,1.29-1.36l-1.16-.57a2.18,2.18,0,0,1-3.49.62,2.2,2.2,0,0,1-.67-1.63H56Zm-5.34-.93a2.2,2.2,0,0,1,.7-1.21,1.87,1.87,0,0,1,1.26-.45,2.1,2.1,0,0,1,1.42.47,1.74,1.74,0,0,1,.58,1.19Zm19.11.13,0-.05a3,3,0,0,0,1.72-1,2.79,2.79,0,0,0,.69-1.85,2.86,2.86,0,0,0-.93-2.14,3.16,3.16,0,0,0-2.23-.86H65.67V39.53H67V35.45H68.4l2.72,4.08h1.53v-.06ZM67,34.24V30.69h2.17a1.69,1.69,0,0,1,1.29.53,1.71,1.71,0,0,1,.51,1.23,1.66,1.66,0,0,1-.55,1.27,1.88,1.88,0,0,1-1.33.52ZM79.8,36.18a4,4,0,0,0-.91-2.78,3.45,3.45,0,0,0-4.89.05,3.76,3.76,0,0,0-1,2.63,3.66,3.66,0,0,0,1,2.63,3.28,3.28,0,0,0,2.51,1,3.54,3.54,0,0,0,1.86-.49,3.38,3.38,0,0,0,1.29-1.36l-1.15-.57A2.19,2.19,0,0,1,75,38a2.24,2.24,0,0,1-.67-1.63h5.42Zm-5.33-.93A2.13,2.13,0,0,1,75.16,34a1.91,1.91,0,0,1,1.26-.45,2.08,2.08,0,0,1,1.42.47,1.74,1.74,0,0,1,.58,1.19Zm22.78.93a4,4,0,0,0-.91-2.78,3.45,3.45,0,0,0-4.89.05,3.76,3.76,0,0,0-1,2.63,3.66,3.66,0,0,0,1,2.63,3.26,3.26,0,0,0,2.5,1,3.55,3.55,0,0,0,1.87-.49,3.44,3.44,0,0,0,1.29-1.36L96,37.33a2.18,2.18,0,0,1-3.49.62,2.2,2.2,0,0,1-.67-1.63h5.42Zm-5.34-.93a2.2,2.2,0,0,1,.7-1.21,1.87,1.87,0,0,1,1.26-.45,2.1,2.1,0,0,1,1.42.47,1.74,1.74,0,0,1,.58,1.19Z"/><path id="google" class="cls-2" d="M47.9,6.34a5.93,5.93,0,0,0-5.79,6.24,5.81,5.81,0,1,0,11.59,0A5.93,5.93,0,0,0,47.9,6.34Zm0,10a3.49,3.49,0,0,1-3.25-3.78c0-2.25,1.5-3.78,3.25-3.78a3.48,3.48,0,0,1,3.26,3.78A3.51,3.51,0,0,1,47.9,16.36Zm12.48-10a5.93,5.93,0,0,0-5.79,6.24,5.81,5.81,0,1,0,11.58,0A5.93,5.93,0,0,0,60.38,6.34Zm0,10a3.5,3.5,0,0,1-3.26-3.78,3.3,3.3,0,1,1,6.52,0A3.51,3.51,0,0,1,60.38,16.36ZM75.43,6.69v.95h-.09a3.79,3.79,0,0,0-2.93-1.3,5.7,5.7,0,0,0-5.35,5.87A5.67,5.67,0,0,0,72.41,18a3.7,3.7,0,0,0,2.93-1.33h.09v.84c0,2.24-1.14,3.43-3,3.43a3.09,3.09,0,0,1-2.81-2.08l-2.13.93a5.32,5.32,0,0,0,4.94,3.45c2.88,0,5.31-1.76,5.31-6.08V6.69Zm-2.8,9a3.3,3.3,0,0,1-3.11-3.52,3.33,3.33,0,0,1,3.11-3.57c1.66,0,3,1.51,3,3.57S74.29,15.73,72.63,15.73ZM82.21,1V18.82H79.54V1Zm6.65,15.37a2.93,2.93,0,0,1-2.81-1.89L93.8,11l-.27-.7c-.48-1.4-2-4-5-4S83.1,8.87,83.1,12.58c0,3.49,2.46,6.23,5.76,6.23a5.72,5.72,0,0,0,4.83-2.76l-2-1.42A3.28,3.28,0,0,1,88.86,16.36Zm-.2-7.61a2.23,2.23,0,0,1,2.15,1.32l-5.18,2.32A3.32,3.32,0,0,1,88.66,8.75ZM32.21,11.22V8.67h8a8.84,8.84,0,0,1,.12,1.54,8.83,8.83,0,0,1-2.06,6,7.66,7.66,0,0,1-6.06,2.63c-4.79,0-8.81-4.21-8.81-9.36S27.42.1,32.21.1a8,8,0,0,1,6,2.58l-1.68,1.8a5.86,5.86,0,0,0-4.28-1.82c-3.5,0-6.23,3-6.23,6.8s2.73,6.8,6.23,6.8a5.63,5.63,0,0,0,4.39-1.87,5.51,5.51,0,0,0,1.28-3.17Z"/></g></g></g></svg>